<svg width="224" height="32" viewBox="0 0 224 32" fill="none" xmlns="http://www.w3.org/2000/svg">
<rect x="48" width="32" height="32" fill="#E44542"/>
<g clip-path="url(#clip0_55396_1560)">
<rect x="48" width="32" height="32" rx="16" fill="#E44542"/>
<path d="M63.9994 8.56027C65.2565 8.56027 66.279 9.5828 66.279 10.8399C66.279 12.0959 65.2562 13.1184 63.9994 13.1184C62.7431 13.1184 61.7203 12.0959 61.7203 10.8399C61.72 9.58254 62.7434 8.56027 63.9994 8.56027ZM63.9994 16.3436C67.0359 16.3436 69.5052 13.8751 69.5052 10.8399C69.5052 7.80312 67.0361 5.3335 63.9994 5.3335C60.9631 5.3335 58.4935 7.80339 58.4935 10.8399C58.4935 13.8751 60.9631 16.3436 63.9994 16.3436ZM66.2268 20.8346C67.3595 20.5767 68.4404 20.1291 69.4238 19.5109C69.7859 19.2831 70.0426 18.9208 70.1375 18.5037C70.2325 18.0866 70.1579 17.6489 69.9301 17.2868C69.8174 17.1074 69.6705 16.9519 69.4977 16.8293C69.3249 16.7067 69.1296 16.6193 68.923 16.5722C68.7165 16.5251 68.5026 16.5192 68.2938 16.5548C68.0849 16.5905 67.8851 16.6669 67.7058 16.7798C65.4502 18.1979 62.547 18.1969 60.2932 16.7798C60.114 16.6669 59.9142 16.5904 59.7053 16.5548C59.4965 16.5191 59.2826 16.525 59.0761 16.5721C58.8695 16.6192 58.6743 16.7066 58.5015 16.8292C58.3287 16.9519 58.1818 17.1074 58.0692 17.2868C57.8414 17.6488 57.7666 18.0865 57.8614 18.5035C57.9562 18.9206 58.2128 19.2829 58.5747 19.5109C59.5581 20.1289 60.6388 20.5764 61.7712 20.8346L58.6933 23.913C58.3908 24.2156 58.2209 24.6259 58.221 25.0538C58.2211 25.4816 58.3911 25.8919 58.6937 26.1943C58.9962 26.4968 59.4066 26.6667 59.8344 26.6666C60.2623 26.6666 60.6725 26.4965 60.975 26.194L63.9989 23.1696L67.0246 26.1942C67.1742 26.344 67.3518 26.4629 67.5474 26.544C67.743 26.6251 67.9526 26.6668 68.1644 26.6668C68.3761 26.6668 68.5857 26.6251 68.7813 26.544C68.9769 26.4629 69.1546 26.344 69.3042 26.1942C69.4542 26.0446 69.5733 25.8669 69.6545 25.6712C69.7357 25.4755 69.7775 25.2658 69.7775 25.0539C69.7775 24.842 69.7357 24.6322 69.6545 24.4365C69.5733 24.2409 69.4542 24.0631 69.3042 23.9135L66.2268 20.8346Z" fill="white"/>
</g>
<path fill-rule="evenodd" clip-rule="evenodd" d="M32 0H0V32H13.3333V20.4446H9.33333V16.0001H13.3333V12.4446C13.3333 8.44455 15.9111 6.22233 19.5556 6.22233C20.7111 6.22233 21.9556 6.40011 23.1111 6.57789V10.6668H21.0667C19.1111 10.6668 18.6667 11.6446 18.6667 12.889V16.0001H22.9333L22.2222 20.4446H18.6667V32H32V0Z" fill="#E44542"/>
<path fill-rule="evenodd" clip-rule="evenodd" d="M176 0H144V32H176V0ZM171.506 9.96265C171.229 8.93464 170.418 8.1241 169.39 7.84733C167.512 7.33333 160 7.33333 160 7.33333C160 7.33333 152.488 7.33333 150.61 7.82757C149.601 8.10433 148.771 8.93464 148.494 9.96265C148 11.8407 148 15.7353 148 15.7353C148 15.7353 148 19.6496 148.494 21.5079C148.771 22.5359 149.582 23.3464 150.61 23.6232C152.507 24.1372 160 24.1372 160 24.1372C160 24.1372 167.512 24.1372 169.39 23.643C170.418 23.3662 171.229 22.5557 171.506 21.5277C172 19.6496 172 15.755 172 15.755C172 15.755 172.02 11.8407 171.506 9.96265ZM157.608 19.196L163.855 15.598L157.608 12V19.196Z" fill="#E44542"/>
<rect width="32" height="32" transform="translate(192)" fill="#E44542"/>
<path d="M208 4.36377C204.84 4.36377 204.444 4.37759 203.202 4.43407C201.964 4.4908 201.118 4.68692 200.378 4.97468C199.613 5.27189 198.964 5.66947 198.317 6.3165C197.67 6.96328 197.272 7.6125 196.974 8.37759C196.685 9.11771 196.489 9.96353 196.433 11.2018C196.378 12.443 196.363 12.8399 196.363 16.0001C196.363 19.1604 196.377 19.5558 196.434 20.797C196.491 22.0358 196.687 22.8813 196.974 23.6212C197.272 24.3866 197.669 25.0358 198.316 25.6826C198.963 26.3298 199.612 26.7284 200.377 27.0256C201.117 27.3133 201.963 27.5095 203.201 27.5662C204.443 27.6227 204.839 27.6365 207.999 27.6365C211.159 27.6365 211.555 27.6227 212.796 27.5662C214.035 27.5095 214.881 27.3133 215.621 27.0256C216.386 26.7284 217.035 26.3298 217.681 25.6826C218.328 25.0358 218.726 24.3866 219.024 23.6215C219.31 22.8813 219.507 22.0355 219.565 20.7972C219.621 19.556 219.635 19.1604 219.635 16.0001C219.635 12.8399 219.621 12.4433 219.565 11.2021C219.507 9.96328 219.31 9.11771 219.024 8.37783C218.726 7.6125 218.328 6.96328 217.681 6.3165C217.034 5.66922 216.387 5.27165 215.621 4.97468C214.879 4.68692 214.033 4.4908 212.794 4.43407C211.553 4.37759 211.158 4.36377 207.997 4.36377H208ZM206.956 6.46074C207.266 6.46025 207.612 6.46074 208 6.46074C211.107 6.46074 211.475 6.47189 212.702 6.52765C213.837 6.57953 214.452 6.7691 214.863 6.92838C215.406 7.13928 215.793 7.39141 216.2 7.79868C216.607 8.20595 216.859 8.59383 217.071 9.13686C217.23 9.54656 217.42 10.1623 217.471 11.2969C217.527 12.5235 217.539 12.892 217.539 15.9975C217.539 19.1029 217.527 19.4714 217.471 20.6981C217.419 21.8326 217.23 22.4484 217.071 22.8581C216.86 23.4011 216.607 23.7878 216.2 24.1948C215.793 24.6021 215.406 24.8542 214.863 25.0651C214.453 25.2251 213.837 25.4142 212.702 25.4661C211.476 25.5218 211.107 25.5339 208 25.5339C204.893 25.5339 204.525 25.5218 203.298 25.4661C202.164 25.4137 201.548 25.2241 201.138 25.0649C200.595 24.8539 200.207 24.6018 199.8 24.1946C199.392 23.7873 199.14 23.4004 198.929 22.8571C198.77 22.4474 198.58 21.8316 198.528 20.6971C198.472 19.4704 198.461 19.1019 198.461 15.9946C198.461 12.8872 198.472 12.5206 198.528 11.294C198.58 10.1594 198.77 9.54365 198.929 9.13347C199.14 8.59044 199.392 8.20256 199.8 7.79528C200.207 7.38801 200.595 7.13589 201.138 6.9245C201.548 6.7645 202.164 6.57541 203.298 6.52328C204.372 6.4748 204.788 6.46025 206.956 6.45783V6.46074ZM214.211 8.39286C213.441 8.39286 212.815 9.01759 212.815 9.78874C212.815 10.5596 213.441 11.1851 214.211 11.1851C214.982 11.1851 215.608 10.5596 215.608 9.78874C215.608 9.01783 214.982 8.39237 214.211 8.39237V8.39286ZM208 10.0244C204.7 10.0244 202.025 12.7 202.025 16.0001C202.025 19.3003 204.7 21.9747 208 21.9747C211.3 21.9747 213.975 19.3003 213.975 16.0001C213.975 12.7 211.3 10.0244 208 10.0244H208ZM208 12.1213C210.142 12.1213 211.879 13.8578 211.879 16.0001C211.879 18.1422 210.142 19.8789 208 19.8789C205.858 19.8789 204.122 18.1422 204.122 16.0001C204.122 13.8578 205.858 12.1213 208 12.1213Z" fill="white"/>
<rect x="96" width="32" height="32" fill="#E44542"/>
<g clip-path="url(#clip1_55396_1560)">
<rect x="96" width="32" height="32" rx="16" fill="#E44542"/>
<path fill-rule="evenodd" clip-rule="evenodd" d="M122.177 11.0229C122.325 10.5285 122.177 10.165 121.471 10.165H119.137C118.544 10.165 118.27 10.4789 118.122 10.8252C118.122 10.8252 116.935 13.718 115.254 15.5971C114.71 16.1411 114.462 16.314 114.166 16.314C114.017 16.314 113.803 16.1411 113.803 15.6467V11.0229C113.803 10.4294 113.63 10.165 113.136 10.165H109.468C109.097 10.165 108.874 10.4404 108.874 10.7015C108.874 11.2641 109.715 11.3938 109.802 12.9762V16.4132C109.802 17.1667 109.666 17.3034 109.369 17.3034C108.578 17.3034 106.653 14.3974 105.512 11.0724C105.288 10.4261 105.064 10.165 104.467 10.165H102.133C101.466 10.165 101.333 10.4789 101.333 10.8252C101.333 11.4433 102.124 14.5094 105.017 18.5643C106.946 21.3333 109.663 22.8347 112.136 22.8347C113.619 22.8347 113.803 22.5013 113.803 21.9269V19.834C113.803 19.1671 113.943 19.0341 114.413 19.0341C114.759 19.0341 115.352 19.2071 116.737 20.5423C118.32 22.1245 118.58 22.8347 119.471 22.8347H121.804C122.471 22.8347 122.805 22.5013 122.612 21.8433C122.402 21.1874 121.646 20.2362 120.644 19.1083C120.1 18.4653 119.284 17.773 119.037 17.4269C118.691 16.9818 118.789 16.7841 119.037 16.3887C119.037 16.3887 121.88 12.3831 122.177 11.0231V11.0229Z" fill="white"/>
</g>
<defs>
<clipPath id="clip0_55396_1560">
<rect width="32" height="32" fill="white" transform="translate(48)"/>
</clipPath>
<clipPath id="clip1_55396_1560">
<rect width="32" height="32" fill="white" transform="translate(96)"/>
</clipPath>
</defs>
</svg>
